<?xml version="1.0" encoding="UTF-8" standalone="no"?><!DOCTYPE svg PUBLIC "-//W3C//DTD SVG 1.1//EN" "http://www.w3.org/Graphics/SVG/1.1/DTD/svg11.dtd"><svg width="100%" height="100%" viewBox="0 0 1075 204" version="1.1" xmlns="http://www.w3.org/2000/svg" xmlns:xlink="http://www.w3.org/1999/xlink" xml:space="preserve" xmlns:serif="http://www.serif.com/" style="fill-rule:evenodd;clip-rule:evenodd;stroke-linejoin:round;stroke-miterlimit:1.41421;"><g><path d="M204.824,196.885c-4.267,0 -26.212,0.844 -40.233,-15.751c0,0 -37.49,-46.408 -73.152,-90.286c65.837,-77.91 82.601,-84.66 104.851,-84.66l0,-3.657l-83.819,0l0,3.657c45.414,0.562 10.058,38.533 -7.316,57.378l-38.404,43.033c0,0 16.459,19.97 33.832,43.034c32.309,42.471 39.319,50.909 71.628,50.909l32.613,0l0,-3.657Zm-204.824,-194.354l0,3.657c13.106,0 19.507,4.781 19.507,22.22l0,142.601c0,19.126 -6.705,25.876 -19.507,25.876l0,3.657l71.018,0l0,-3.657c-13.106,0 -20.422,-6.75 -20.422,-25.876l0,-142.601c0,-20.533 10.364,-22.22 23.775,-22.22l0,-3.657l-74.371,0Z" style="fill-rule:nonzero;"/><path d="M373.073,139.507c-5.182,57.378 -56.997,57.659 -89.611,57.378l-10.972,0l0,-165.665c0,-20.251 9.448,-25.032 22.555,-25.032l0,-3.657l-72.542,0l0,3.657c13.106,0 19.202,6.469 19.202,23.626l0,137.257c0,19.126 -3.658,29.814 -16.764,29.814l0,3.657l152.094,0l0,-61.035l-3.962,0Z" style="fill-rule:nonzero;"/><path d="M570.277,102.943c0,77.348 -27.736,96.474 -63.702,96.474c-36.271,0 -64.008,-19.126 -64.008,-96.474c0,-77.067 27.737,-99.287 64.008,-99.287c35.966,0 63.702,22.22 63.702,99.287Zm35.357,0c0,-55.691 -32.004,-102.943 -99.059,-102.943c-67.056,0 -99.06,47.252 -99.06,102.943c0,55.971 32.004,100.13 99.06,100.13c67.055,0 99.059,-44.159 99.059,-100.13Z" style="fill-rule:nonzero;"/><path d="M747.67,56.253c0,50.065 -26.213,49.784 -60.655,49.784l-9.449,0l0,-99.849l9.449,0c32.613,0 60.655,-1.125 60.655,50.065Zm66.446,140.632c-7.925,-0.562 -27.127,-3.375 -32.614,-24.751c-15.849,-61.597 -36.88,-63.566 -56.997,-64.41c32.918,-1.969 56.693,-13.219 56.693,-51.471c0,-46.971 -33.528,-53.722 -94.183,-53.722l-58.216,0l0,3.657c13.411,0 18.897,3.938 18.897,21.376l0,140.07c0,23.626 -5.791,29.251 -18.897,29.251l0,3.657l68.274,0l0,-3.657c-12.801,0 -19.507,-6.188 -19.507,-25.595l0,-61.597l14.326,0c7.925,0 38.709,0 47.244,29.533c17.373,61.034 12.801,61.316 51.815,61.316l23.165,0l0,-3.657Z" style="fill-rule:nonzero;"/><path d="M831.794,2.531l0,3.657c13.411,0 21.336,4.781 21.336,22.22l0,142.038c0,19.126 -8.23,26.439 -21.336,26.439l0,3.657l74.066,0l0,-3.657c-12.801,0 -21.336,-7.313 -21.336,-26.439l0,-142.038c0,-17.439 8.23,-22.22 21.336,-22.22l0,-3.657l-74.066,0Z" style="fill-rule:nonzero;"/><path d="M1066.79,180.009c15.849,-23.063 9.144,-54.284 -31.699,-79.035l-50.292,-30.658c-46.025,-27.564 -21.031,-66.66 11.887,-66.66c50.901,0 62.788,29.252 65.532,56.816l4.267,0l0,-47.253c0,0 -25.603,-13.219 -69.799,-13.219c-42.367,0 -57.302,21.939 -57.302,21.939c-23.47,33.189 4.267,58.784 33.223,76.504l50.596,30.095c35.662,23.345 29.566,70.879 -16.763,70.879c-51.816,0 -65.532,-31.783 -68.885,-66.098l-3.657,0l0,54.003c0,0 22.859,15.751 72.542,15.751c47.243,0 60.35,-23.064 60.35,-23.064Z" style="fill-rule:nonzero;"/></g></svg>